<mxfile host="Electron" agent="Mozilla/5.0 (Windows NT 10.0; Win64; x64) AppleWebKit/537.36 (KHTML, like Gecko) draw.io/27.0.5 Chrome/134.0.6998.205 Electron/35.3.0 Safari/537.36" version="27.0.5">
  <diagram name="Seite-1" id="IvP5_QmjdrkxepU5AVn3">
    <mxGraphModel dx="3683" dy="2958" grid="1" gridSize="10" guides="1" tooltips="1" connect="1" arrows="1" fold="1" page="1" pageScale="1" pageWidth="827" pageHeight="1169" math="0" shadow="0">
      <root>
        <mxCell id="0" />
        <mxCell id="1" parent="0" />
        <mxCell id="nSkchFA1e2LLlKDFBqip-111" style="edgeStyle=orthogonalEdgeStyle;rounded=0;orthogonalLoop=1;jettySize=auto;html=1;" edge="1" parent="1" source="T-oR4fz3d32SBS_SVe8I-7" target="nSkchFA1e2LLlKDFBqip-17">
          <mxGeometry relative="1" as="geometry">
            <Array as="points">
              <mxPoint x="724" y="-228" />
              <mxPoint x="724" y="-271" />
            </Array>
          </mxGeometry>
        </mxCell>
        <mxCell id="T-oR4fz3d32SBS_SVe8I-7" value="Taxi Mobile Client&lt;div&gt;Taxi in Region A&lt;/div&gt;" style="outlineConnect=0;dashed=0;verticalLabelPosition=bottom;verticalAlign=top;align=center;html=1;shape=mxgraph.aws3.mobile_client;fillColor=#D2D3D3;gradientColor=none;" parent="1" vertex="1">
          <mxGeometry x="540" y="-260" width="40.5" height="63" as="geometry" />
        </mxCell>
        <mxCell id="T-oR4fz3d32SBS_SVe8I-14" value="AWS Cloud" style="points=[[0,0],[0.25,0],[0.5,0],[0.75,0],[1,0],[1,0.25],[1,0.5],[1,0.75],[1,1],[0.75,1],[0.5,1],[0.25,1],[0,1],[0,0.75],[0,0.5],[0,0.25]];outlineConnect=0;gradientColor=none;html=1;whiteSpace=wrap;fontSize=12;fontStyle=0;container=1;pointerEvents=0;collapsible=0;recursiveResize=0;shape=mxgraph.aws4.group;grIcon=mxgraph.aws4.group_aws_cloud;strokeColor=#232F3E;fillColor=none;verticalAlign=top;align=left;spacingLeft=30;fontColor=#232F3E;dashed=0;" parent="1" vertex="1">
          <mxGeometry x="790" y="-800" width="1570" height="740" as="geometry" />
        </mxCell>
        <mxCell id="T-oR4fz3d32SBS_SVe8I-10" value="AWS Route 53&lt;div&gt;DNS AuflÃ¶sung&lt;/div&gt;" style="sketch=0;points=[[0,0,0],[0.25,0,0],[0.5,0,0],[0.75,0,0],[1,0,0],[0,1,0],[0.25,1,0],[0.5,1,0],[0.75,1,0],[1,1,0],[0,0.25,0],[0,0.5,0],[0,0.75,0],[1,0.25,0],[1,0.5,0],[1,0.75,0]];outlineConnect=0;fontColor=#232F3E;fillColor=#8C4FFF;strokeColor=#ffffff;dashed=0;verticalLabelPosition=bottom;verticalAlign=top;align=center;html=1;fontSize=12;fontStyle=0;aspect=fixed;shape=mxgraph.aws4.resourceIcon;resIcon=mxgraph.aws4.route_53;" parent="T-oR4fz3d32SBS_SVe8I-14" vertex="1">
          <mxGeometry x="80" y="40" width="78" height="78" as="geometry" />
        </mxCell>
        <mxCell id="T-oR4fz3d32SBS_SVe8I-16" value="Region A" style="points=[[0,0],[0.25,0],[0.5,0],[0.75,0],[1,0],[1,0.25],[1,0.5],[1,0.75],[1,1],[0.75,1],[0.5,1],[0.25,1],[0,1],[0,0.75],[0,0.5],[0,0.25]];outlineConnect=0;gradientColor=none;html=1;whiteSpace=wrap;fontSize=12;fontStyle=0;container=1;pointerEvents=0;collapsible=0;recursiveResize=0;shape=mxgraph.aws4.group;grIcon=mxgraph.aws4.group_region;strokeColor=#00A4A6;fillColor=none;verticalAlign=top;align=left;spacingLeft=30;fontColor=#147EBA;dashed=1;" parent="T-oR4fz3d32SBS_SVe8I-14" vertex="1">
          <mxGeometry x="190" y="20" width="930" height="650" as="geometry" />
        </mxCell>
        <mxCell id="T-oR4fz3d32SBS_SVe8I-17" style="edgeStyle=orthogonalEdgeStyle;rounded=0;orthogonalLoop=1;jettySize=auto;html=1;entryX=0;entryY=0.5;entryDx=0;entryDy=0;entryPerimeter=0;" parent="T-oR4fz3d32SBS_SVe8I-16" source="T-oR4fz3d32SBS_SVe8I-3" target="T-oR4fz3d32SBS_SVe8I-5" edge="1">
          <mxGeometry relative="1" as="geometry">
            <mxPoint x="250" y="299" as="targetPoint" />
          </mxGeometry>
        </mxCell>
        <mxCell id="T-oR4fz3d32SBS_SVe8I-3" value="AWS API Gateway&lt;div&gt;REST API&lt;/div&gt;&lt;div&gt;&quot;Input&quot;&lt;/div&gt;" style="sketch=0;points=[[0,0,0],[0.25,0,0],[0.5,0,0],[0.75,0,0],[1,0,0],[0,1,0],[0.25,1,0],[0.5,1,0],[0.75,1,0],[1,1,0],[0,0.25,0],[0,0.5,0],[0,0.75,0],[1,0.25,0],[1,0.5,0],[1,0.75,0]];outlineConnect=0;fontColor=#232F3E;fillColor=#E7157B;strokeColor=#ffffff;dashed=0;verticalLabelPosition=bottom;verticalAlign=top;align=center;html=1;fontSize=12;fontStyle=0;aspect=fixed;shape=mxgraph.aws4.resourceIcon;resIcon=mxgraph.aws4.api_gateway;" parent="T-oR4fz3d32SBS_SVe8I-16" vertex="1">
          <mxGeometry x="50" y="260" width="78" height="78" as="geometry" />
        </mxCell>
        <mxCell id="T-oR4fz3d32SBS_SVe8I-5" value="AWS Lambda&lt;div&gt;Position Data Validator&lt;/div&gt;" style="sketch=0;points=[[0,0,0],[0.25,0,0],[0.5,0,0],[0.75,0,0],[1,0,0],[0,1,0],[0.25,1,0],[0.5,1,0],[0.75,1,0],[1,1,0],[0,0.25,0],[0,0.5,0],[0,0.75,0],[1,0.25,0],[1,0.5,0],[1,0.75,0]];outlineConnect=0;fontColor=#232F3E;fillColor=#ED7100;strokeColor=#ffffff;dashed=0;verticalLabelPosition=bottom;verticalAlign=top;align=center;html=1;fontSize=12;fontStyle=0;aspect=fixed;shape=mxgraph.aws4.resourceIcon;resIcon=mxgraph.aws4.lambda;" parent="T-oR4fz3d32SBS_SVe8I-16" vertex="1">
          <mxGeometry x="264" y="260" width="78" height="78" as="geometry" />
        </mxCell>
        <mxCell id="nSkchFA1e2LLlKDFBqip-4" style="edgeStyle=orthogonalEdgeStyle;rounded=0;orthogonalLoop=1;jettySize=auto;html=1;exitX=1;exitY=0.5;exitDx=0;exitDy=0;exitPerimeter=0;" edge="1" parent="T-oR4fz3d32SBS_SVe8I-16" source="T-oR4fz3d32SBS_SVe8I-5" target="nSkchFA1e2LLlKDFBqip-3">
          <mxGeometry relative="1" as="geometry">
            <mxPoint x="523.9999999999995" y="299" as="sourcePoint" />
          </mxGeometry>
        </mxCell>
        <mxCell id="nSkchFA1e2LLlKDFBqip-3" value="AWS S3&lt;div&gt;Position Data Storage&lt;/div&gt;" style="sketch=0;points=[[0,0,0],[0.25,0,0],[0.5,0,0],[0.75,0,0],[1,0,0],[0,1,0],[0.25,1,0],[0.5,1,0],[0.75,1,0],[1,1,0],[0,0.25,0],[0,0.5,0],[0,0.75,0],[1,0.25,0],[1,0.5,0],[1,0.75,0]];outlineConnect=0;fontColor=#232F3E;fillColor=#7AA116;strokeColor=#ffffff;dashed=0;verticalLabelPosition=bottom;verticalAlign=top;align=center;html=1;fontSize=12;fontStyle=0;aspect=fixed;shape=mxgraph.aws4.resourceIcon;resIcon=mxgraph.aws4.s3;" vertex="1" parent="T-oR4fz3d32SBS_SVe8I-16">
          <mxGeometry x="450" y="260" width="78" height="78" as="geometry" />
        </mxCell>
        <mxCell id="nSkchFA1e2LLlKDFBqip-23" style="edgeStyle=orthogonalEdgeStyle;rounded=0;orthogonalLoop=1;jettySize=auto;html=1;" edge="1" parent="T-oR4fz3d32SBS_SVe8I-16" source="nSkchFA1e2LLlKDFBqip-17" target="nSkchFA1e2LLlKDFBqip-20">
          <mxGeometry relative="1" as="geometry" />
        </mxCell>
        <mxCell id="nSkchFA1e2LLlKDFBqip-17" value="AWS API Gateway&lt;div&gt;REST API&lt;/div&gt;&lt;div&gt;&quot;Output&quot;&lt;/div&gt;" style="sketch=0;points=[[0,0,0],[0.25,0,0],[0.5,0,0],[0.75,0,0],[1,0,0],[0,1,0],[0.25,1,0],[0.5,1,0],[0.75,1,0],[1,1,0],[0,0.25,0],[0,0.5,0],[0,0.75,0],[1,0.25,0],[1,0.5,0],[1,0.75,0]];outlineConnect=0;fontColor=#232F3E;fillColor=#E7157B;strokeColor=#ffffff;dashed=0;verticalLabelPosition=bottom;verticalAlign=top;align=center;html=1;fontSize=12;fontStyle=0;aspect=fixed;shape=mxgraph.aws4.resourceIcon;resIcon=mxgraph.aws4.api_gateway;" vertex="1" parent="T-oR4fz3d32SBS_SVe8I-16">
          <mxGeometry x="50" y="470" width="78" height="78" as="geometry" />
        </mxCell>
        <mxCell id="nSkchFA1e2LLlKDFBqip-19" value="AWS Dynamo DB&lt;div&gt;Orders&lt;/div&gt;" style="sketch=0;points=[[0,0,0],[0.25,0,0],[0.5,0,0],[0.75,0,0],[1,0,0],[0,1,0],[0.25,1,0],[0.5,1,0],[0.75,1,0],[1,1,0],[0,0.25,0],[0,0.5,0],[0,0.75,0],[1,0.25,0],[1,0.5,0],[1,0.75,0]];outlineConnect=0;fontColor=#232F3E;fillColor=#C925D1;strokeColor=#ffffff;dashed=0;verticalLabelPosition=bottom;verticalAlign=top;align=center;html=1;fontSize=12;fontStyle=0;aspect=fixed;shape=mxgraph.aws4.resourceIcon;resIcon=mxgraph.aws4.dynamodb;" vertex="1" parent="T-oR4fz3d32SBS_SVe8I-16">
          <mxGeometry x="450" y="470" width="78" height="78" as="geometry" />
        </mxCell>
        <mxCell id="nSkchFA1e2LLlKDFBqip-24" style="edgeStyle=orthogonalEdgeStyle;rounded=0;orthogonalLoop=1;jettySize=auto;html=1;" edge="1" parent="T-oR4fz3d32SBS_SVe8I-16" source="nSkchFA1e2LLlKDFBqip-20" target="nSkchFA1e2LLlKDFBqip-19">
          <mxGeometry relative="1" as="geometry" />
        </mxCell>
        <mxCell id="nSkchFA1e2LLlKDFBqip-20" value="AWS Lambda&lt;div&gt;Order Retriver&lt;/div&gt;" style="sketch=0;points=[[0,0,0],[0.25,0,0],[0.5,0,0],[0.75,0,0],[1,0,0],[0,1,0],[0.25,1,0],[0.5,1,0],[0.75,1,0],[1,1,0],[0,0.25,0],[0,0.5,0],[0,0.75,0],[1,0.25,0],[1,0.5,0],[1,0.75,0]];outlineConnect=0;fontColor=#232F3E;fillColor=#ED7100;strokeColor=#ffffff;dashed=0;verticalLabelPosition=bottom;verticalAlign=top;align=center;html=1;fontSize=12;fontStyle=0;aspect=fixed;shape=mxgraph.aws4.resourceIcon;resIcon=mxgraph.aws4.lambda;" vertex="1" parent="T-oR4fz3d32SBS_SVe8I-16">
          <mxGeometry x="250" y="470" width="78" height="78" as="geometry" />
        </mxCell>
        <mxCell id="nSkchFA1e2LLlKDFBqip-40" value="/positiondata" style="text;html=1;align=center;verticalAlign=middle;resizable=0;points=[];autosize=1;strokeColor=none;fillColor=none;" vertex="1" parent="T-oR4fz3d32SBS_SVe8I-16">
          <mxGeometry x="140" y="270" width="90" height="30" as="geometry" />
        </mxCell>
        <mxCell id="nSkchFA1e2LLlKDFBqip-43" value="AWS Lambda&lt;div&gt;Business Logic&lt;/div&gt;" style="sketch=0;points=[[0,0,0],[0.25,0,0],[0.5,0,0],[0.75,0,0],[1,0,0],[0,1,0],[0.25,1,0],[0.5,1,0],[0.75,1,0],[1,1,0],[0,0.25,0],[0,0.5,0],[0,0.75,0],[1,0.25,0],[1,0.5,0],[1,0.75,0]];outlineConnect=0;fontColor=#232F3E;fillColor=#ED7100;strokeColor=#ffffff;dashed=0;verticalLabelPosition=bottom;verticalAlign=top;align=center;html=1;fontSize=12;fontStyle=0;aspect=fixed;shape=mxgraph.aws4.resourceIcon;resIcon=mxgraph.aws4.lambda;" vertex="1" parent="T-oR4fz3d32SBS_SVe8I-16">
          <mxGeometry x="264" y="100" width="78" height="78" as="geometry" />
        </mxCell>
        <mxCell id="nSkchFA1e2LLlKDFBqip-44" style="edgeStyle=orthogonalEdgeStyle;rounded=0;orthogonalLoop=1;jettySize=auto;html=1;entryX=0;entryY=0.5;entryDx=0;entryDy=0;entryPerimeter=0;" edge="1" parent="T-oR4fz3d32SBS_SVe8I-16" source="T-oR4fz3d32SBS_SVe8I-3" target="nSkchFA1e2LLlKDFBqip-43">
          <mxGeometry relative="1" as="geometry">
            <Array as="points">
              <mxPoint x="89" y="139" />
            </Array>
          </mxGeometry>
        </mxCell>
        <mxCell id="nSkchFA1e2LLlKDFBqip-45" value="POST /tour status: ended" style="text;html=1;align=center;verticalAlign=middle;resizable=0;points=[];autosize=1;strokeColor=none;fillColor=none;" vertex="1" parent="T-oR4fz3d32SBS_SVe8I-16">
          <mxGeometry x="90" y="110" width="160" height="30" as="geometry" />
        </mxCell>
        <mxCell id="nSkchFA1e2LLlKDFBqip-48" value="trigger other things, e.g. receipt generation" style="text;html=1;align=center;verticalAlign=middle;resizable=0;points=[];autosize=1;strokeColor=none;fillColor=none;" vertex="1" parent="T-oR4fz3d32SBS_SVe8I-16">
          <mxGeometry x="334" y="110" width="250" height="30" as="geometry" />
        </mxCell>
        <mxCell id="nSkchFA1e2LLlKDFBqip-46" value="AWS Lambda&lt;div&gt;Receipt Generator&lt;/div&gt;" style="sketch=0;points=[[0,0,0],[0.25,0,0],[0.5,0,0],[0.75,0,0],[1,0,0],[0,1,0],[0.25,1,0],[0.5,1,0],[0.75,1,0],[1,1,0],[0,0.25,0],[0,0.5,0],[0,0.75,0],[1,0.25,0],[1,0.5,0],[1,0.75,0]];outlineConnect=0;fontColor=#232F3E;fillColor=#ED7100;strokeColor=#ffffff;dashed=0;verticalLabelPosition=bottom;verticalAlign=top;align=center;html=1;fontSize=12;fontStyle=0;aspect=fixed;shape=mxgraph.aws4.resourceIcon;resIcon=mxgraph.aws4.lambda;" vertex="1" parent="T-oR4fz3d32SBS_SVe8I-16">
          <mxGeometry x="624" y="100" width="78" height="78" as="geometry" />
        </mxCell>
        <mxCell id="nSkchFA1e2LLlKDFBqip-47" style="edgeStyle=orthogonalEdgeStyle;rounded=0;orthogonalLoop=1;jettySize=auto;html=1;entryX=0;entryY=0.5;entryDx=0;entryDy=0;entryPerimeter=0;" edge="1" parent="T-oR4fz3d32SBS_SVe8I-16" source="nSkchFA1e2LLlKDFBqip-43" target="nSkchFA1e2LLlKDFBqip-46">
          <mxGeometry relative="1" as="geometry" />
        </mxCell>
        <mxCell id="nSkchFA1e2LLlKDFBqip-50" value="AWS RDS&lt;div&gt;Main Database&lt;/div&gt;" style="sketch=0;points=[[0,0,0],[0.25,0,0],[0.5,0,0],[0.75,0,0],[1,0,0],[0,1,0],[0.25,1,0],[0.5,1,0],[0.75,1,0],[1,1,0],[0,0.25,0],[0,0.5,0],[0,0.75,0],[1,0.25,0],[1,0.5,0],[1,0.75,0]];outlineConnect=0;fontColor=#232F3E;fillColor=#C925D1;strokeColor=#ffffff;dashed=0;verticalLabelPosition=bottom;verticalAlign=top;align=center;html=1;fontSize=12;fontStyle=0;aspect=fixed;shape=mxgraph.aws4.resourceIcon;resIcon=mxgraph.aws4.rds;" vertex="1" parent="T-oR4fz3d32SBS_SVe8I-16">
          <mxGeometry x="834" y="100" width="78" height="78" as="geometry" />
        </mxCell>
        <mxCell id="nSkchFA1e2LLlKDFBqip-51" style="edgeStyle=orthogonalEdgeStyle;rounded=0;orthogonalLoop=1;jettySize=auto;html=1;entryX=0;entryY=0.5;entryDx=0;entryDy=0;entryPerimeter=0;" edge="1" parent="T-oR4fz3d32SBS_SVe8I-16" source="nSkchFA1e2LLlKDFBqip-46" target="nSkchFA1e2LLlKDFBqip-50">
          <mxGeometry relative="1" as="geometry" />
        </mxCell>
        <mxCell id="nSkchFA1e2LLlKDFBqip-54" style="edgeStyle=orthogonalEdgeStyle;rounded=0;orthogonalLoop=1;jettySize=auto;html=1;" edge="1" parent="T-oR4fz3d32SBS_SVe8I-16">
          <mxGeometry relative="1" as="geometry">
            <mxPoint x="323" y="210" as="sourcePoint" />
            <mxPoint x="873" y="210" as="targetPoint" />
            <Array as="points">
              <mxPoint x="323" y="230" />
              <mxPoint x="873" y="230" />
            </Array>
          </mxGeometry>
        </mxCell>
        <mxCell id="nSkchFA1e2LLlKDFBqip-107" value="AWS SNS&lt;div&gt;Reciept Sender&lt;/div&gt;" style="sketch=0;points=[[0,0,0],[0.25,0,0],[0.5,0,0],[0.75,0,0],[1,0,0],[0,1,0],[0.25,1,0],[0.5,1,0],[0.75,1,0],[1,1,0],[0,0.25,0],[0,0.5,0],[0,0.75,0],[1,0.25,0],[1,0.5,0],[1,0.75,0]];outlineConnect=0;fontColor=#232F3E;fillColor=#E7157B;strokeColor=#ffffff;dashed=0;verticalLabelPosition=bottom;verticalAlign=top;align=center;html=1;fontSize=12;fontStyle=0;aspect=fixed;shape=mxgraph.aws4.resourceIcon;resIcon=mxgraph.aws4.sns;" vertex="1" parent="T-oR4fz3d32SBS_SVe8I-16">
          <mxGeometry x="730" y="10" width="78" height="78" as="geometry" />
        </mxCell>
        <mxCell id="nSkchFA1e2LLlKDFBqip-109" style="edgeStyle=orthogonalEdgeStyle;rounded=0;orthogonalLoop=1;jettySize=auto;html=1;entryX=0;entryY=0.5;entryDx=0;entryDy=0;entryPerimeter=0;" edge="1" parent="T-oR4fz3d32SBS_SVe8I-16" source="nSkchFA1e2LLlKDFBqip-46" target="nSkchFA1e2LLlKDFBqip-107">
          <mxGeometry relative="1" as="geometry">
            <Array as="points">
              <mxPoint x="663" y="49" />
            </Array>
          </mxGeometry>
        </mxCell>
        <mxCell id="nSkchFA1e2LLlKDFBqip-25" value="Backoffice App" style="sketch=0;outlineConnect=0;fontColor=#232F3E;gradientColor=none;fillColor=#232F3D;strokeColor=none;dashed=0;verticalLabelPosition=bottom;verticalAlign=top;align=center;html=1;fontSize=12;fontStyle=0;aspect=fixed;pointerEvents=1;shape=mxgraph.aws4.traditional_server;" vertex="1" parent="T-oR4fz3d32SBS_SVe8I-14">
          <mxGeometry x="1450" y="610" width="45" height="78" as="geometry" />
        </mxCell>
        <mxCell id="nSkchFA1e2LLlKDFBqip-92" style="edgeStyle=orthogonalEdgeStyle;rounded=0;orthogonalLoop=1;jettySize=auto;html=1;dashed=1;" edge="1" parent="T-oR4fz3d32SBS_SVe8I-14" source="nSkchFA1e2LLlKDFBqip-83" target="nSkchFA1e2LLlKDFBqip-19">
          <mxGeometry relative="1" as="geometry">
            <Array as="points">
              <mxPoint x="1170" y="309" />
              <mxPoint x="1170" y="420" />
              <mxPoint x="685" y="420" />
            </Array>
          </mxGeometry>
        </mxCell>
        <mxCell id="nSkchFA1e2LLlKDFBqip-93" style="edgeStyle=orthogonalEdgeStyle;rounded=0;orthogonalLoop=1;jettySize=auto;html=1;" edge="1" parent="T-oR4fz3d32SBS_SVe8I-14" source="nSkchFA1e2LLlKDFBqip-83" target="nSkchFA1e2LLlKDFBqip-90">
          <mxGeometry relative="1" as="geometry" />
        </mxCell>
        <mxCell id="nSkchFA1e2LLlKDFBqip-83" value="ETL Flow" style="rounded=1;whiteSpace=wrap;html=1;" vertex="1" parent="T-oR4fz3d32SBS_SVe8I-14">
          <mxGeometry x="1230" y="279" width="120" height="60" as="geometry" />
        </mxCell>
        <mxCell id="nSkchFA1e2LLlKDFBqip-84" style="edgeStyle=orthogonalEdgeStyle;rounded=0;orthogonalLoop=1;jettySize=auto;html=1;entryX=1;entryY=0.5;entryDx=0;entryDy=0;entryPerimeter=0;dashed=1;" edge="1" parent="T-oR4fz3d32SBS_SVe8I-14" source="nSkchFA1e2LLlKDFBqip-83" target="nSkchFA1e2LLlKDFBqip-50">
          <mxGeometry relative="1" as="geometry" />
        </mxCell>
        <mxCell id="nSkchFA1e2LLlKDFBqip-85" style="edgeStyle=orthogonalEdgeStyle;rounded=0;orthogonalLoop=1;jettySize=auto;html=1;entryX=1;entryY=0.5;entryDx=0;entryDy=0;entryPerimeter=0;dashed=1;" edge="1" parent="T-oR4fz3d32SBS_SVe8I-14" source="nSkchFA1e2LLlKDFBqip-83" target="nSkchFA1e2LLlKDFBqip-3">
          <mxGeometry relative="1" as="geometry" />
        </mxCell>
        <mxCell id="nSkchFA1e2LLlKDFBqip-90" value="AWS S3&lt;div&gt;Transformed Data&lt;/div&gt;" style="sketch=0;points=[[0,0,0],[0.25,0,0],[0.5,0,0],[0.75,0,0],[1,0,0],[0,1,0],[0.25,1,0],[0.5,1,0],[0.75,1,0],[1,1,0],[0,0.25,0],[0,0.5,0],[0,0.75,0],[1,0.25,0],[1,0.5,0],[1,0.75,0]];outlineConnect=0;fontColor=#232F3E;fillColor=#7AA116;strokeColor=#ffffff;dashed=0;verticalLabelPosition=bottom;verticalAlign=top;align=center;html=1;fontSize=12;fontStyle=0;aspect=fixed;shape=mxgraph.aws4.resourceIcon;resIcon=mxgraph.aws4.s3;" vertex="1" parent="T-oR4fz3d32SBS_SVe8I-14">
          <mxGeometry x="1251" y="380" width="78" height="78" as="geometry" />
        </mxCell>
        <mxCell id="nSkchFA1e2LLlKDFBqip-97" style="edgeStyle=orthogonalEdgeStyle;rounded=0;orthogonalLoop=1;jettySize=auto;html=1;" edge="1" parent="T-oR4fz3d32SBS_SVe8I-14" source="nSkchFA1e2LLlKDFBqip-96" target="nSkchFA1e2LLlKDFBqip-90">
          <mxGeometry relative="1" as="geometry" />
        </mxCell>
        <mxCell id="nSkchFA1e2LLlKDFBqip-96" value="Snowflake" style="sketch=0;outlineConnect=0;fontColor=#232F3E;gradientColor=none;fillColor=#232F3D;strokeColor=none;dashed=0;verticalLabelPosition=bottom;verticalAlign=top;align=center;html=1;fontSize=12;fontStyle=0;aspect=fixed;pointerEvents=1;shape=mxgraph.aws4.traditional_server;" vertex="1" parent="T-oR4fz3d32SBS_SVe8I-14">
          <mxGeometry x="1470" y="378" width="46.15" height="80" as="geometry" />
        </mxCell>
        <mxCell id="nSkchFA1e2LLlKDFBqip-55" value="" style="shape=mxgraph.signs.nature.snowflake;html=1;pointerEvents=1;fillColor=#000000;strokeColor=none;verticalLabelPosition=bottom;verticalAlign=top;align=center;" vertex="1" parent="T-oR4fz3d32SBS_SVe8I-14">
          <mxGeometry x="1477.58" y="418" width="31" height="30" as="geometry" />
        </mxCell>
        <mxCell id="nSkchFA1e2LLlKDFBqip-98" style="edgeStyle=orthogonalEdgeStyle;rounded=0;orthogonalLoop=1;jettySize=auto;html=1;entryX=1;entryY=0.5;entryDx=0;entryDy=0;entryPerimeter=0;" edge="1" parent="T-oR4fz3d32SBS_SVe8I-14" source="nSkchFA1e2LLlKDFBqip-25" target="nSkchFA1e2LLlKDFBqip-50">
          <mxGeometry relative="1" as="geometry">
            <Array as="points">
              <mxPoint x="1200" y="649" />
              <mxPoint x="1200" y="149" />
            </Array>
          </mxGeometry>
        </mxCell>
        <mxCell id="nSkchFA1e2LLlKDFBqip-28" style="edgeStyle=orthogonalEdgeStyle;rounded=0;orthogonalLoop=1;jettySize=auto;html=1;" edge="1" parent="T-oR4fz3d32SBS_SVe8I-14" source="nSkchFA1e2LLlKDFBqip-27" target="nSkchFA1e2LLlKDFBqip-25">
          <mxGeometry relative="1" as="geometry" />
        </mxCell>
        <mxCell id="nSkchFA1e2LLlKDFBqip-27" value="Admins/Service Staff" style="sketch=0;outlineConnect=0;fontColor=#232F3E;gradientColor=none;fillColor=#232F3D;strokeColor=none;dashed=0;verticalLabelPosition=bottom;verticalAlign=top;align=center;html=1;fontSize=12;fontStyle=0;aspect=fixed;pointerEvents=1;shape=mxgraph.aws4.client;" vertex="1" parent="T-oR4fz3d32SBS_SVe8I-14">
          <mxGeometry x="1720" y="610" width="78" height="76" as="geometry" />
        </mxCell>
        <mxCell id="nSkchFA1e2LLlKDFBqip-101" style="edgeStyle=orthogonalEdgeStyle;rounded=0;orthogonalLoop=1;jettySize=auto;html=1;" edge="1" parent="T-oR4fz3d32SBS_SVe8I-14" source="nSkchFA1e2LLlKDFBqip-100" target="nSkchFA1e2LLlKDFBqip-96">
          <mxGeometry relative="1" as="geometry" />
        </mxCell>
        <mxCell id="nSkchFA1e2LLlKDFBqip-100" value="BI/Data Scientists" style="sketch=0;outlineConnect=0;fontColor=#232F3E;gradientColor=none;fillColor=#232F3D;strokeColor=none;dashed=0;verticalLabelPosition=bottom;verticalAlign=top;align=center;html=1;fontSize=12;fontStyle=0;aspect=fixed;pointerEvents=1;shape=mxgraph.aws4.client;" vertex="1" parent="T-oR4fz3d32SBS_SVe8I-14">
          <mxGeometry x="1720" y="380" width="78" height="76" as="geometry" />
        </mxCell>
        <mxCell id="nSkchFA1e2LLlKDFBqip-108" style="edgeStyle=orthogonalEdgeStyle;rounded=0;orthogonalLoop=1;jettySize=auto;html=1;entryX=1;entryY=0.5;entryDx=0;entryDy=0;entryPerimeter=0;" edge="1" parent="T-oR4fz3d32SBS_SVe8I-14" source="nSkchFA1e2LLlKDFBqip-25" target="nSkchFA1e2LLlKDFBqip-19">
          <mxGeometry relative="1" as="geometry">
            <Array as="points">
              <mxPoint x="1200" y="649" />
              <mxPoint x="1200" y="529" />
            </Array>
          </mxGeometry>
        </mxCell>
        <mxCell id="nSkchFA1e2LLlKDFBqip-110" style="edgeStyle=orthogonalEdgeStyle;rounded=0;orthogonalLoop=1;jettySize=auto;html=1;entryX=0;entryY=0.5;entryDx=0;entryDy=0;entryPerimeter=0;" edge="1" parent="1" source="T-oR4fz3d32SBS_SVe8I-7" target="T-oR4fz3d32SBS_SVe8I-10">
          <mxGeometry relative="1" as="geometry" />
        </mxCell>
        <mxCell id="nSkchFA1e2LLlKDFBqip-112" style="edgeStyle=orthogonalEdgeStyle;rounded=0;orthogonalLoop=1;jettySize=auto;html=1;entryX=0;entryY=0.5;entryDx=0;entryDy=0;entryPerimeter=0;" edge="1" parent="1" source="T-oR4fz3d32SBS_SVe8I-7" target="T-oR4fz3d32SBS_SVe8I-3">
          <mxGeometry relative="1" as="geometry">
            <Array as="points">
              <mxPoint x="725" y="-229" />
              <mxPoint x="725" y="-481" />
            </Array>
          </mxGeometry>
        </mxCell>
      </root>
    </mxGraphModel>
  </diagram>
</mxfile>
